<svg xmlns="http://www.w3.org/2000/svg" viewBox="0 0 32 32">
  <defs>
    <linearGradient id="grad" x1="0%" y1="0%" x2="100%" y2="100%">
      <stop offset="0%" style="stop-color:#667eea"/>
      <stop offset="100%" style="stop-color:#06b6d4"/>
    </linearGradient>
  </defs>
  <rect width="32" height="32" rx="8" fill="url(#grad)"/>
  <path d="M16 6c-4.4 0-8 3.1-8 7 0 2.4 1.3 4.5 3.3 5.8v3.5c0 .9.7 1.7 1.7 1.7h6c.9 0 1.7-.8 1.7-1.7v-3.5c2-1.3 3.3-3.4 3.3-5.8 0-3.9-3.6-7-8-7zm2 16h-4v-1h4v1zm0-2h-4v-1h4v1zm1.7-4.2l-.7.5v2.7h-6v-2.7l-.7-.5C11.1 15 10 13.6 10 12c0-3.3 2.7-5 6-5s6 1.7 6 5c0 1.6-1.1 3-2.3 3.8z" fill="white"/>
</svg>
